<svg width="94" height="108" viewBox="0 0 94 108" fill="none" xmlns="http://www.w3.org/2000/svg">
<path d="M1.63952 26.1893L45.3395 0.958723C46.3652 0.366484 47.6307 0.373472 48.6498 0.977004L67.0572 11.8775C69.2153 13.1555 69.1981 16.2847 67.0259 17.5387L8.14648 51.5328C5.96043 52.7949 5.96043 55.9502 8.14648 57.2123L45.3605 78.6978C46.375 79.2836 47.625 79.2836 48.6395 78.6978L65.1206 69.1825C67.3067 67.9203 67.3067 64.7651 65.1206 63.5029L54.2249 57.2123C52.0389 55.9502 52.0389 52.7949 54.2249 51.5328L89.0814 31.4084C91.2674 30.1463 94 31.7239 94 34.2481V78.7441C94 79.9156 93.375 80.9981 92.3605 81.5838L48.6395 106.826C47.625 107.412 46.375 107.412 45.3605 106.826L1.63953 81.5838C0.624987 80.9981 0 79.9156 0 78.7441V29.029C0 27.8575 0.624979 26.775 1.63952 26.1893Z" fill="white"/>
</svg>
