<svg width="95" height="108" viewBox="0 0 95 108" fill="none" xmlns="http://www.w3.org/2000/svg">
<path d="M1.84752 26.5213L45.5475 1.29075C46.5732 0.698516 47.8387 0.705503 48.8578 1.30904L67.2652 12.2095C69.4233 13.4875 69.4061 16.6167 67.2339 17.8708L8.35448 51.8648C6.16844 53.1269 6.16844 56.2822 8.35448 57.5443L45.5685 79.0298C46.583 79.6156 47.833 79.6156 48.8475 79.0299L65.3286 69.5145C67.5147 68.2524 67.5147 65.0971 65.3286 63.835L54.4329 57.5443C52.2469 56.2822 52.2469 53.1269 54.4329 51.8648L89.2894 31.7404C91.4754 30.4783 94.208 32.056 94.208 34.5802V79.0761C94.208 80.2476 93.583 81.3301 92.5685 81.9159L48.8475 107.158C47.833 107.744 46.583 107.744 45.5685 107.158L1.84754 81.9159C0.832995 81.3301 0.208008 80.2476 0.208008 79.0761V29.3611C0.208008 28.1896 0.832987 27.1071 1.84752 26.5213Z" fill="#94C294"/>
</svg>
