<svg width="253" height="108" viewBox="0 0 253 108" fill="none" xmlns="http://www.w3.org/2000/svg">
<g clip-path="url(#clip0_2867_863)">
<path d="M1.63952 26.1893L45.3395 0.958723C46.3652 0.366484 47.6307 0.373472 48.6498 0.977004L67.0572 11.8775C69.2153 13.1555 69.1981 16.2847 67.0259 17.5387L8.14648 51.5328C5.96043 52.7949 5.96043 55.9502 8.14648 57.2123L45.3605 78.6978C46.375 79.2836 47.625 79.2836 48.6395 78.6978L65.1206 69.1825C67.3067 67.9203 67.3067 64.7651 65.1206 63.5029L54.2249 57.2123C52.0389 55.9502 52.0389 52.7949 54.2249 51.5328L89.0814 31.4084C91.2674 30.1463 94 31.7239 94 34.2481V78.7441C94 79.9156 93.375 80.9981 92.3605 81.5838L48.6395 106.826C47.625 107.412 46.375 107.412 45.3605 106.826L1.63953 81.5838C0.624987 80.9981 0 79.9156 0 78.7441V29.029C0 27.8575 0.624979 26.775 1.63952 26.1893Z" fill="#94C294"/>
<path d="M155.385 45.5835C154.896 44.0866 154.251 42.7452 153.451 41.5595C152.665 40.3589 151.724 39.3362 150.627 38.4914C149.545 37.6466 148.315 37.0018 146.937 36.5572C145.558 36.1126 144.047 35.8902 142.401 35.8902C139.704 35.8902 137.251 36.5868 135.042 37.9801C132.834 39.3733 131.078 41.4261 129.773 44.1384C128.469 46.8508 127.817 50.1782 127.817 54.1208C127.817 58.0633 128.476 61.3908 129.796 64.1031C131.115 66.8155 132.901 68.8682 135.154 70.2615C137.406 71.6547 139.941 72.3513 142.757 72.3513C145.366 72.3513 147.663 71.7955 149.649 70.6839C151.65 69.5574 153.206 67.9715 154.318 65.9262C155.444 63.866 156.008 61.4426 156.008 58.6562L157.697 59.0119H144.002V54.1208H161.343V59.0119C161.343 62.7618 160.543 66.0225 158.942 68.7941C157.356 71.5658 155.163 73.7149 152.361 75.2415C149.575 76.7533 146.374 77.5092 142.757 77.5092C138.726 77.5092 135.183 76.5606 132.13 74.6635C129.092 72.7663 126.72 70.0688 125.016 66.5709C123.326 63.073 122.481 58.923 122.481 54.1208C122.481 50.5191 122.963 47.2806 123.926 44.4052C124.904 41.515 126.283 39.0546 128.061 37.0241C129.84 34.9935 131.945 33.4373 134.375 32.3553C136.806 31.2733 139.481 30.7323 142.401 30.7323C144.802 30.7323 147.04 31.0954 149.116 31.8217C151.205 32.5331 153.065 33.5484 154.696 34.8675C156.341 36.1718 157.712 37.7355 158.809 39.5586C159.906 41.3668 160.662 43.3751 161.077 45.5835H155.385ZM175.322 31.3548V76.8867H170.075V31.3548H175.322ZM198.805 77.5982C195.722 77.5982 193.017 76.8645 190.69 75.3971C188.378 73.9298 186.57 71.877 185.265 69.2388C183.976 66.6005 183.331 63.5177 183.331 59.9901C183.331 56.4329 183.976 53.3278 185.265 50.6748C186.57 48.0217 188.378 45.9615 190.69 44.4942C193.017 43.0268 195.722 42.2932 198.805 42.2932C201.888 42.2932 204.585 43.0268 206.897 44.4942C209.224 45.9615 211.033 48.0217 212.322 50.6748C213.626 53.3278 214.279 56.4329 214.279 59.9901C214.279 63.5177 213.626 66.6005 212.322 69.2388C211.033 71.877 209.224 73.9298 206.897 75.3971C204.585 76.8645 201.888 77.5982 198.805 77.5982ZM198.805 72.8849C201.147 72.8849 203.073 72.2846 204.585 71.0841C206.097 69.8835 207.216 68.305 207.942 66.3486C208.669 64.3921 209.032 62.2726 209.032 59.9901C209.032 57.7076 208.669 55.5807 207.942 53.6094C207.216 51.6382 206.097 50.0448 204.585 48.8295C203.073 47.6141 201.147 47.0064 198.805 47.0064C196.463 47.0064 194.536 47.6141 193.024 48.8295C191.513 50.0448 190.394 51.6382 189.667 53.6094C188.941 55.5807 188.578 57.7076 188.578 59.9901C188.578 62.2726 188.941 64.3921 189.667 66.3486C190.394 68.305 191.513 69.8835 193.024 71.0841C194.536 72.2846 196.463 72.8849 198.805 72.8849ZM192.402 37.0463C191.468 37.0463 190.638 36.6906 189.912 35.9792C189.2 35.2529 188.845 34.4229 188.845 33.4891C188.845 32.4664 189.2 31.6216 189.912 30.9546C190.638 30.2729 191.468 29.932 192.402 29.932C193.425 29.932 194.269 30.2729 194.936 30.9546C195.618 31.6216 195.959 32.4664 195.959 33.4891C195.959 34.4229 195.618 35.2529 194.936 35.9792C194.269 36.6906 193.425 37.0463 192.402 37.0463ZM205.208 37.0463C204.274 37.0463 203.444 36.6906 202.718 35.9792C202.006 35.2529 201.651 34.4229 201.651 33.4891C201.651 32.4664 202.006 31.6216 202.718 30.9546C203.444 30.2729 204.274 29.932 205.208 29.932C206.23 29.932 207.075 30.2729 207.742 30.9546C208.424 31.6216 208.765 32.4664 208.765 33.4891C208.765 34.4229 208.424 35.2529 207.742 35.9792C207.075 36.6906 206.23 37.0463 205.208 37.0463ZM236.161 77.5982C232.959 77.5982 230.203 76.8423 227.89 75.3305C225.578 73.8187 223.8 71.7362 222.555 69.0832C221.31 66.4301 220.687 63.3991 220.687 59.9901C220.687 56.5219 221.324 53.4612 222.599 50.8081C223.889 48.1403 225.682 46.0578 227.979 44.5609C230.291 43.0491 232.989 42.2932 236.072 42.2932C238.473 42.2932 240.637 42.7378 242.564 43.6271C244.491 44.5164 246.069 45.7614 247.299 47.3621C248.529 48.9629 249.293 50.8304 249.589 52.9647H244.342C243.942 51.4084 243.053 50.03 241.674 48.8295C240.311 47.6141 238.473 47.0064 236.161 47.0064C234.115 47.0064 232.322 47.54 230.781 48.6071C229.254 49.6595 228.061 51.149 227.201 53.0759C226.356 54.9878 225.934 57.2333 225.934 59.8123C225.934 62.4505 226.349 64.7478 227.179 66.7043C228.024 68.6607 229.209 70.18 230.736 71.2619C232.278 72.3439 234.086 72.8849 236.161 72.8849C237.524 72.8849 238.762 72.6477 239.874 72.1735C240.985 71.6992 241.926 71.0174 242.697 70.1281C243.468 69.2388 244.016 68.1716 244.342 66.9266H249.589C249.293 68.9424 248.559 70.758 247.388 72.3735C246.232 73.9743 244.698 75.2489 242.786 76.1975C240.889 77.1313 238.68 77.5982 236.161 77.5982Z" fill="white"/>
</g>
<defs>
<clipPath id="clip0_2867_863">
<rect width="252.746" height="107.773" fill="white"/>
</clipPath>
</defs>
</svg>
