<svg width="253" height="108" viewBox="0 0 253 108" fill="none" xmlns="http://www.w3.org/2000/svg">
<g clip-path="url(#clip0_2867_843)">
<path d="M1.63952 26.1893L45.3395 0.958723C46.3652 0.366484 47.6307 0.373472 48.6498 0.977004L67.0572 11.8775C69.2153 13.1555 69.1981 16.2847 67.0259 17.5387L8.14648 51.5328C5.96043 52.7949 5.96043 55.9502 8.14648 57.2123L45.3605 78.6978C46.375 79.2836 47.625 79.2836 48.6395 78.6978L65.1206 69.1825C67.3067 67.9203 67.3067 64.7651 65.1206 63.5029L54.2249 57.2123C52.0389 55.9502 52.0389 52.7949 54.2249 51.5328L89.0814 31.4084C91.2674 30.1463 94 31.7239 94 34.2481V78.7441C94 79.9156 93.375 80.9981 92.3605 81.5838L48.6395 106.826C47.625 107.412 46.375 107.412 45.3605 106.826L1.63953 81.5838C0.624987 80.9981 0 79.9156 0 78.7441V29.029C0 27.8575 0.624979 26.775 1.63952 26.1893Z" fill="white"/>
<path d="M155.385 45.5831C154.896 44.0861 154.251 42.7447 153.451 41.559C152.665 40.3584 151.724 39.3358 150.627 38.4909C149.545 37.6461 148.315 37.0014 146.937 36.5567C145.558 36.1121 144.047 35.8897 142.401 35.8897C139.704 35.8897 137.251 36.5864 135.042 37.9796C132.834 39.3728 131.078 41.4256 129.773 44.138C128.469 46.8503 127.817 50.1777 127.817 54.1203C127.817 58.0628 128.476 61.3903 129.796 64.1026C131.115 66.815 132.901 68.8678 135.154 70.261C137.406 71.6542 139.941 72.3508 142.757 72.3508C145.366 72.3508 147.663 71.795 149.649 70.6834C151.65 69.557 153.206 67.9711 154.318 65.9257C155.444 63.8655 156.008 61.4421 156.008 58.6557L157.697 59.0114H144.002V54.1203H161.343V59.0114C161.343 62.7613 160.543 66.022 158.942 68.7936C157.356 71.5653 155.163 73.7144 152.361 75.241C149.575 76.7528 146.374 77.5087 142.757 77.5087C138.726 77.5087 135.183 76.5602 132.13 74.663C129.092 72.7658 126.72 70.0683 125.016 66.5704C123.326 63.0725 122.481 58.9225 122.481 54.1203C122.481 50.5186 122.963 47.2801 123.926 44.4047C124.904 41.5145 126.283 39.0541 128.061 37.0236C129.84 34.993 131.945 33.4368 134.375 32.3548C136.806 31.2728 139.481 30.7318 142.401 30.7318C144.802 30.7318 147.04 31.095 149.116 31.8212C151.205 32.5327 153.065 33.5479 154.696 34.8671C156.341 36.1714 157.712 37.735 158.809 39.5581C159.906 41.3663 160.662 43.3746 161.077 45.5831H155.385ZM175.322 31.3543V76.8862H170.075V31.3543H175.322ZM198.805 77.5977C195.722 77.5977 193.017 76.864 190.69 75.3967C188.378 73.9293 186.57 71.8765 185.265 69.2383C183.976 66.6001 183.331 63.5172 183.331 59.9896C183.331 56.4325 183.976 53.3273 185.265 50.6743C186.57 48.0212 188.378 45.961 190.69 44.4937C193.017 43.0263 195.722 42.2927 198.805 42.2927C201.888 42.2927 204.585 43.0263 206.897 44.4937C209.224 45.961 211.033 48.0212 212.322 50.6743C213.626 53.3273 214.279 56.4325 214.279 59.9896C214.279 63.5172 213.626 66.6001 212.322 69.2383C211.033 71.8765 209.224 73.9293 206.897 75.3967C204.585 76.864 201.888 77.5977 198.805 77.5977ZM198.805 72.8844C201.147 72.8844 203.073 72.2841 204.585 71.0836C206.097 69.883 207.216 68.3045 207.942 66.3481C208.669 64.3916 209.032 62.2722 209.032 59.9896C209.032 57.7071 208.669 55.5802 207.942 53.6089C207.216 51.6377 206.097 50.0444 204.585 48.829C203.073 47.6136 201.147 47.0059 198.805 47.0059C196.463 47.0059 194.536 47.6136 193.024 48.829C191.513 50.0444 190.394 51.6377 189.667 53.6089C188.941 55.5802 188.578 57.7071 188.578 59.9896C188.578 62.2722 188.941 64.3916 189.667 66.3481C190.394 68.3045 191.513 69.883 193.024 71.0836C194.536 72.2841 196.463 72.8844 198.805 72.8844ZM192.402 37.0458C191.468 37.0458 190.638 36.6901 189.912 35.9787C189.2 35.2524 188.845 34.4224 188.845 33.4886C188.845 32.466 189.2 31.6211 189.912 30.9542C190.638 30.2724 191.468 29.9315 192.402 29.9315C193.425 29.9315 194.269 30.2724 194.936 30.9542C195.618 31.6211 195.959 32.466 195.959 33.4886C195.959 34.4224 195.618 35.2524 194.936 35.9787C194.269 36.6901 193.425 37.0458 192.402 37.0458ZM205.208 37.0458C204.274 37.0458 203.444 36.6901 202.718 35.9787C202.006 35.2524 201.651 34.4224 201.651 33.4886C201.651 32.466 202.006 31.6211 202.718 30.9542C203.444 30.2724 204.274 29.9315 205.208 29.9315C206.23 29.9315 207.075 30.2724 207.742 30.9542C208.424 31.6211 208.765 32.466 208.765 33.4886C208.765 34.4224 208.424 35.2524 207.742 35.9787C207.075 36.6901 206.23 37.0458 205.208 37.0458ZM236.161 77.5977C232.959 77.5977 230.203 76.8418 227.89 75.33C225.578 73.8182 223.8 71.7357 222.555 69.0827C221.31 66.4296 220.687 63.3986 220.687 59.9896C220.687 56.5214 221.324 53.4607 222.599 50.8077C223.889 48.1398 225.682 46.0573 227.979 44.5604C230.291 43.0486 232.989 42.2927 236.072 42.2927C238.473 42.2927 240.637 42.7373 242.564 43.6266C244.491 44.5159 246.069 45.7609 247.299 47.3616C248.529 48.9624 249.293 50.8299 249.589 52.9642H244.342C243.942 51.4079 243.053 50.0295 241.674 48.829C240.311 47.6136 238.473 47.0059 236.161 47.0059C234.115 47.0059 232.322 47.5395 230.781 48.6067C229.254 49.659 228.061 51.1486 227.201 53.0754C226.356 54.9873 225.934 57.2328 225.934 59.8118C225.934 62.45 226.349 64.7474 227.179 66.7038C228.024 68.6603 229.209 70.1795 230.736 71.2614C232.278 72.3434 234.086 72.8844 236.161 72.8844C237.524 72.8844 238.762 72.6473 239.874 72.173C240.985 71.6987 241.926 71.0169 242.697 70.1276C243.468 69.2383 244.016 68.1711 244.342 66.9261H249.589C249.293 68.9419 248.559 70.7575 247.388 72.3731C246.232 73.9738 244.698 75.2484 242.786 76.197C240.889 77.1308 238.68 77.5977 236.161 77.5977Z" fill="white"/>
</g>
<defs>
<clipPath id="clip0_2867_843">
<rect width="252.746" height="107.773" fill="white"/>
</clipPath>
</defs>
</svg>
