<svg width="110" height="109" viewBox="0 0 110 109" fill="none" xmlns="http://www.w3.org/2000/svg">
<path d="M90 0C101.046 3.22129e-07 110 8.95431 110 20V89C110 100.046 101.046 109 90 109H20C8.95431 109 0 100.046 0 89V20C0 8.95431 8.95431 3.22129e-07 20 0H90ZM10.2627 33.9941C6.83258 33.8039 6.76896 37.409 7.16602 39.2354C7.08661 50.194 6.97543 74.8748 7.16602 85.9287C6.40393 96.6009 15.1067 101.016 19.5537 101.89H48.3799C52.1915 101.89 51.5558 99.3487 50.7617 98.0781L19.5537 35.9004C18.8842 34.5665 17.3693 34.0737 16.6953 33.9941H10.2627ZM103.411 50.6699C103.602 43.4287 100.314 44.6349 98.6465 46.1436L59.3389 75.4463C51.9887 80.9255 53.6211 83.3082 53.6211 85.9287C56.2892 96.2196 62.1968 100.857 64.8174 101.89H92.2139C99.4559 100.746 102.696 93.6315 103.411 90.2168V50.6699ZM71.25 10.4092C71.858 9.05925 72.1845 6.59807 68.6289 7.55078C64.6251 7.55065 34.244 7.55073 19.5537 7.55078C16.2184 7.70979 9.0719 10.4576 7.16602 20.1768V25.8945C7.72184 26.5298 9.31009 27.6098 11.2158 26.8477H20.2686C22.095 27.0859 26.1296 29.23 27.6543 35.9004C28.7984 38.5695 37.6592 56.2289 41.9473 64.7256C43.1289 66.7108 45.8793 69.7764 47.4268 66.1553L71.25 10.4092ZM90.3086 7.07422C87.6881 7.07422 81.7317 5.88339 78.3965 13.0303C77.062 16.2711 63.2293 48.0495 56.4795 63.5342C55.8285 65.5989 55.4895 69.0142 59.3389 66.1553L100.075 35.9004C101.663 35.6622 104.364 31.5644 102.458 17.0801C101.743 15.4125 99.361 7.07445 90.3086 7.07422Z" fill="white"/>
</svg>
